<?xml version="1.0" standalone="no"?>
<!DOCTYPE svg PUBLIC "-//W3C//DTD SVG 20010904//EN"
 "http://www.w3.org/TR/2001/REC-SVG-20010904/DTD/svg10.dtd">
<svg version="1.0" xmlns="http://www.w3.org/2000/svg"
 width="180.000000pt" height="180.000000pt" viewBox="0 0 180.000000 180.000000"
 preserveAspectRatio="xMidYMid meet">

<g transform="translate(0.000000,180.000000) scale(0.100000,-0.100000)"
fill="#000000" stroke="none">
<path d="M20 1662 c0 -4 59 -111 131 -237 72 -127 144 -254 161 -284 16 -29
43 -76 59 -103 16 -27 29 -51 29 -54 0 -3 16 -28 35 -57 19 -28 35 -55 35 -60
0 -4 11 -24 23 -45 24 -37 44 -71 122 -212 23 -41 51 -90 62 -108 l21 -33 42
73 c24 40 75 129 115 198 155 270 344 598 376 653 27 47 38 57 60 57 23 0 34
13 88 105 34 57 61 107 61 110 0 3 -72 5 -159 5 -137 0 -160 -2 -165 -16 -3
-9 -74 -129 -157 -268 -83 -138 -154 -258 -159 -266 -5 -8 -32 -54 -60 -102
-29 -49 -53 -88 -55 -88 -2 0 -24 35 -48 78 -44 77 -179 311 -223 387 -13 22
-24 43 -24 48 0 4 102 7 228 7 l227 0 55 101 c30 56 56 105 58 110 2 5 -198 9
-467 9 -259 0 -471 -3 -471 -8z"/>
<path d="M1490 1584 c-28 -47 -58 -96 -66 -110 l-16 -24 128 0 129 0 58 104
c31 58 57 107 57 110 0 3 -54 6 -120 6 l-119 0 -51 -86z"/>
<path d="M1324 1298 c-57 -98 -511 -890 -531 -928 -7 -14 -13 -29 -13 -34 0
-10 109 -206 115 -206 2 0 33 51 68 113 35 61 99 173 142 247 43 74 87 151 97
170 90 158 340 592 357 620 35 59 33 60 -94 60 l-115 0 -26 -42z"/>
</g>
</svg>
